<svg width="22" height="22" viewBox="0 0 22 22" fill="none" xmlns="http://www.w3.org/2000/svg">
<path d="M1 1H2.74001C3.82001 1 4.67 1.93 4.58 3L3.75 12.96C3.61 14.59 4.89999 15.99 6.53999 15.99H17.19C18.63 15.99 19.89 14.81 20 13.38L20.54 5.88C20.66 4.22 19.4 2.87 17.73 2.87H4.82001" stroke="white" stroke-width="1.5" stroke-miterlimit="10" stroke-linecap="round" stroke-linejoin="round"/>
<path d="M15.25 21C15.9404 21 16.5 20.4404 16.5 19.75C16.5 19.0596 15.9404 18.5 15.25 18.5C14.5596 18.5 14 19.0596 14 19.75C14 20.4404 14.5596 21 15.25 21Z" stroke="white" stroke-width="1.5" stroke-miterlimit="10" stroke-linecap="round" stroke-linejoin="round"/>
<path d="M7.25 21C7.94036 21 8.5 20.4404 8.5 19.75C8.5 19.0596 7.94036 18.5 7.25 18.5C6.55964 18.5 6 19.0596 6 19.75C6 20.4404 6.55964 21 7.25 21Z" stroke="white" stroke-width="1.5" stroke-miterlimit="10" stroke-linecap="round" stroke-linejoin="round"/>
<path d="M8 7H20" stroke="white" stroke-width="1.5" stroke-miterlimit="10" stroke-linecap="round" stroke-linejoin="round"/>
</svg>
