<svg width="22" height="23" viewBox="0 0 22 23" fill="none" xmlns="http://www.w3.org/2000/svg">
<path d="M7.67 14H3C1.9 14 1 14.9 1 16V22H7.67V14Z" stroke="white" stroke-width="1.5" stroke-miterlimit="10" stroke-linecap="round" stroke-linejoin="round"/>
<path d="M12.33 10H9.66C8.56 10 7.66 10.9 7.66 12V22H14.33V12C14.33 10.9 13.44 10 12.33 10Z" stroke="white" stroke-width="1.5" stroke-miterlimit="10" stroke-linecap="round" stroke-linejoin="round"/>
<path d="M19 17H14.33V22H21V19C21 17.9 20.1 17 19 17Z" stroke="white" stroke-width="1.5" stroke-miterlimit="10" stroke-linecap="round" stroke-linejoin="round"/>
<path d="M11.52 2.07007L12.05 3.13006C12.12 3.28006 12.31 3.42006 12.47 3.44006L13.43 3.60007C14.04 3.70007 14.19 4.15005 13.75 4.58005L13 5.33005C12.87 5.46005 12.8 5.70006 12.84 5.87006L13.05 6.79007C13.22 7.52007 12.83 7.80007 12.19 7.42007L11.29 6.89007C11.13 6.79007 10.86 6.79007 10.7 6.89007L9.79998 7.42007C9.15998 7.80007 8.76998 7.52007 8.93998 6.79007L9.14999 5.87006C9.18999 5.70006 9.11999 5.45005 8.98999 5.33005L8.24999 4.59006C7.80999 4.15006 7.94999 3.71005 8.56999 3.61005L9.52998 3.45007C9.68998 3.42007 9.87999 3.28007 9.94999 3.14007L10.48 2.08005C10.77 1.50005 11.23 1.50007 11.52 2.07007Z" stroke="white" stroke-width="1.5" stroke-linecap="round" stroke-linejoin="round"/>
</svg>
