<svg width="20" height="20" viewBox="0 0 20 20" fill="none" xmlns="http://www.w3.org/2000/svg">
<path d="M14.7716 6.28772L6.2863 14.773C5.99639 15.0629 5.51556 15.0629 5.22564 14.773C4.93573 14.4831 4.93573 14.0023 5.22564 13.7123L13.7109 5.22706C14.0008 4.93715 14.4817 4.93715 14.7716 5.22706C15.0615 5.51698 15.0615 5.99781 14.7716 6.28772Z" fill="#D72D15"/>
<path d="M14.7716 14.7729C14.4817 15.0628 14.0008 15.0628 13.7109 14.7729L5.22564 6.28765C4.93573 5.99774 4.93573 5.51691 5.22564 5.22699C5.51556 4.93708 5.99639 4.93708 6.2863 5.22699L14.7716 13.7123C15.0615 14.0022 15.0615 14.483 14.7716 14.7729Z" fill="#D72D15"/>
</svg>
