<svg width="22" height="22" viewBox="0 0 22 22" fill="none" xmlns="http://www.w3.org/2000/svg">
<path d="M11.22 1H10.78C10.2496 1 9.74086 1.21071 9.36579 1.58579C8.99072 1.96086 8.78 2.46957 8.78 3V3.18C8.77964 3.53073 8.68706 3.87519 8.51154 4.17884C8.33602 4.48248 8.08374 4.73464 7.78 4.91L7.35 5.16C7.04596 5.33554 6.70108 5.42795 6.35 5.42795C5.99893 5.42795 5.65404 5.33554 5.35 5.16L5.2 5.08C4.74107 4.81526 4.19584 4.74344 3.684 4.88031C3.17217 5.01717 2.73555 5.35154 2.47 5.81L2.25 6.19C1.98526 6.64893 1.91345 7.19416 2.05031 7.706C2.18717 8.21783 2.52154 8.65445 2.98 8.92L3.13 9.02C3.43228 9.19451 3.68362 9.44509 3.85905 9.74683C4.03448 10.0486 4.1279 10.391 4.13 10.74V11.25C4.1314 11.6024 4.03965 11.949 3.86405 12.2545C3.68844 12.5601 3.43521 12.8138 3.13 12.99L2.98 13.08C2.52154 13.3456 2.18717 13.7822 2.05031 14.294C1.91345 14.8058 1.98526 15.3511 2.25 15.81L2.47 16.19C2.73555 16.6485 3.17217 16.9828 3.684 17.1197C4.19584 17.2566 4.74107 17.1847 5.2 16.92L5.35 16.84C5.65404 16.6645 5.99893 16.5721 6.35 16.5721C6.70108 16.5721 7.04596 16.6645 7.35 16.84L7.78 17.09C8.08374 17.2654 8.33602 17.5175 8.51154 17.8212C8.68706 18.1248 8.77964 18.4693 8.78 18.82V19C8.78 19.5304 8.99072 20.0391 9.36579 20.4142C9.74086 20.7893 10.2496 21 10.78 21H11.22C11.7504 21 12.2591 20.7893 12.6342 20.4142C13.0093 20.0391 13.22 19.5304 13.22 19V18.82C13.2204 18.4693 13.3129 18.1248 13.4885 17.8212C13.664 17.5175 13.9163 17.2654 14.22 17.09L14.65 16.84C14.954 16.6645 15.2989 16.5721 15.65 16.5721C16.0011 16.5721 16.346 16.6645 16.65 16.84L16.8 16.92C17.2589 17.1847 17.8042 17.2566 18.316 17.1197C18.8278 16.9828 19.2645 16.6485 19.53 16.19L19.75 15.8C20.0147 15.3411 20.0866 14.7958 19.9497 14.284C19.8128 13.7722 19.4785 13.3356 19.02 13.07L18.87 12.99C18.5648 12.8138 18.3116 12.5601 18.136 12.2545C17.9604 11.949 17.8686 11.6024 17.87 11.25V10.75C17.8686 10.3976 17.9604 10.051 18.136 9.74549C18.3116 9.43994 18.5648 9.18621 18.87 9.01L19.02 8.92C19.4785 8.65445 19.8128 8.21783 19.9497 7.706C20.0866 7.19416 20.0147 6.64893 19.75 6.19L19.53 5.81C19.2645 5.35154 18.8278 5.01717 18.316 4.88031C17.8042 4.74344 17.2589 4.81526 16.8 5.08L16.65 5.16C16.346 5.33554 16.0011 5.42795 15.65 5.42795C15.2989 5.42795 14.954 5.33554 14.65 5.16L14.22 4.91C13.9163 4.73464 13.664 4.48248 13.4885 4.17884C13.3129 3.87519 13.2204 3.53073 13.22 3.18V3C13.22 2.46957 13.0093 1.96086 12.6342 1.58579C12.2591 1.21071 11.7504 1 11.22 1V1Z" stroke="white" stroke-width="2" stroke-linecap="round" stroke-linejoin="round"/>
<path d="M11 14C12.6569 14 14 12.6569 14 11C14 9.34315 12.6569 8 11 8C9.34315 8 8 9.34315 8 11C8 12.6569 9.34315 14 11 14Z" stroke="white" stroke-width="2" stroke-linecap="round" stroke-linejoin="round"/>
</svg>
