<svg width="18" height="22" viewBox="0 0 18 22" fill="none" xmlns="http://www.w3.org/2000/svg">
<path d="M9.04597 1.96997C5.73597 1.96997 3.04597 4.65997 3.04597 7.96997V10.86C3.04597 11.47 2.78597 12.4 2.47597 12.92L1.32597 14.83C0.615967 16.01 1.10597 17.32 2.40597 17.76C6.71597 19.2 11.366 19.2 15.676 17.76C16.886 17.36 17.416 15.93 16.756 14.83L15.606 12.92C15.306 12.4 15.046 11.47 15.046 10.86V7.96997C15.046 4.66997 12.346 1.96997 9.04597 1.96997Z" stroke="#292D32" stroke-width="1.5" stroke-miterlimit="10" stroke-linecap="round"/>
<path d="M10.8959 2.26C10.5859 2.17 10.2659 2.1 9.93592 2.06C8.97592 1.94 8.05592 2.01 7.19592 2.26C7.48592 1.52 8.20592 1 9.04592 1C9.88592 1 10.6059 1.52 10.8959 2.26Z" stroke="#292D32" stroke-width="1.5" stroke-miterlimit="10" stroke-linecap="round" stroke-linejoin="round"/>
<path d="M12.046 18.1201C12.046 19.7701 10.696 21.1201 9.04602 21.1201C8.22602 21.1201 7.46602 20.7801 6.92602 20.2401C6.38602 19.7001 6.04602 18.9401 6.04602 18.1201" stroke="#292D32" stroke-width="1.5" stroke-miterlimit="10"/>
</svg>
