<svg width="67" height="67" viewBox="0 0 67 67" fill="none" xmlns="http://www.w3.org/2000/svg">
<path d="M42.775 3H24.8917C22.795 3 19.835 4.23335 18.355 5.71335L5.71335 18.355C4.23335 19.835 3 22.795 3 24.8917V42.775C3 44.8717 4.23335 47.8316 5.71335 49.3116L18.355 61.9533C19.835 63.4333 22.795 64.6667 24.8917 64.6667H42.775C44.8717 64.6667 47.8317 63.4333 49.3117 61.9533L61.9533 49.3116C63.4333 47.8316 64.6667 44.8717 64.6667 42.775V24.8917C64.6667 22.795 63.4333 19.835 61.9533 18.355L49.3117 5.71335C47.8317 4.23335 44.8717 3 42.775 3Z" stroke="#3D0DDF" stroke-opacity="0.2" stroke-width="4.625" stroke-linecap="round" stroke-linejoin="round"/>
<path d="M12.0664 55.6632L55.6647 12.0649" stroke="#3D0DDF" stroke-opacity="0.2" stroke-width="4.625" stroke-linecap="round" stroke-linejoin="round"/>
</svg>
