<svg xmlns="http://www.w3.org/2000/svg" width="40.502" height="36.002" viewBox="0 0 40.502 36.002">
  <path id="Icon_awesome-hand-holding-heart" data-name="Icon awesome-hand-holding-heart" d="M19.357,17.613a1.225,1.225,0,0,0,1.793,0l7.657-8.03a5.828,5.828,0,0,0-.394-8.353,5.345,5.345,0,0,0-7.376.541l-.787.823-.78-.816a5.339,5.339,0,0,0-7.376-.548A5.834,5.834,0,0,0,11.7,9.584ZM39.748,23.07a2.327,2.327,0,0,0-3,0l-6.5,5.2a4.476,4.476,0,0,1-2.812.984H19.125a1.125,1.125,0,0,1,0-2.25H24.63a2.341,2.341,0,0,0,2.341-1.87A2.253,2.253,0,0,0,24.75,22.5H13.5a8.275,8.275,0,0,0-5.21,1.849L5.02,27h-3.9A1.128,1.128,0,0,0,0,28.125v6.75A1.128,1.128,0,0,0,1.125,36H26.212a4.505,4.505,0,0,0,2.813-.984l10.631-8.508A2.249,2.249,0,0,0,39.748,23.07Z" transform="translate(0 0.002)" fill="#3d0ddf"/>
</svg>
