<svg width="32" height="32" viewBox="0 0 32 32" fill="none" xmlns="http://www.w3.org/2000/svg">
<path d="M32 5C32 6.125 31.1063 7.1625 29.6 8C27.7813 9.00625 25.0687 9.71875 21.9562 9.93125C21.725 9.81875 21.4938 9.7125 21.25 9.61875C18.7875 8.5875 15.5125 8 12 8C11.4812 8 10.975 8.0125 10.4688 8.0375L10.4 8C8.89375 7.1625 8 6.125 8 5C8 2.2375 13.375 0 20 0C26.625 0 32 2.2375 32 5ZM10.0437 10.0688C10.6812 10.025 11.3375 10 12 10C15.8875 10 19.3375 10.7687 21.5312 11.9625C23.0812 12.8062 24 13.8563 24 15C24 15.25 23.9562 15.4937 23.8687 15.7312C23.5812 16.5562 22.8062 17.3125 21.6812 17.95C21.675 17.9563 21.6625 17.9562 21.6562 17.9625C21.6375 17.975 21.6188 17.9812 21.6 17.9937C19.4125 19.2062 15.925 19.9937 12 19.9937C8.275 19.9937 4.94375 19.2875 2.7375 18.175C2.61875 18.1187 2.50625 18.0562 2.39375 17.9937C0.89375 17.1625 0 16.125 0 15C0 12.825 3.3375 10.9688 8 10.2875C8.65625 10.1938 9.3375 10.1188 10.0437 10.0688ZM26 15C26 13.6313 25.3375 12.5063 24.4937 11.6625C26.2625 11.3875 27.8813 10.95 29.2563 10.3813C30.275 9.95625 31.225 9.43125 32 8.7875V11C32 12.2062 30.9688 13.3187 29.2625 14.1812C28.35 14.6437 27.2375 15.0375 25.9875 15.3375C25.9937 15.225 26 15.1188 26 15.0063V15ZM24 21C24 22.125 23.1063 23.1625 21.6 24C21.4875 24.0625 21.375 24.1187 21.2563 24.1812C19.0563 25.2937 15.725 26 12 26C8.075 26 4.5875 25.2125 2.4 24C0.89375 23.1625 0 22.125 0 21V18.7875C0.78125 19.4313 1.725 19.9563 2.74375 20.3813C5.2125 21.4125 8.4875 22 12 22C15.5125 22 18.7875 21.4125 21.2563 20.3813C21.7438 20.1813 22.2125 19.95 22.6562 19.7C23.0375 19.4875 23.3938 19.25 23.7313 19C23.825 18.9312 23.9125 18.8563 24 18.7875V21ZM26 21V17.3813C27.1875 17.1188 28.2813 16.7875 29.2563 16.3813C30.275 15.9563 31.225 15.4313 32 14.7875V17C32 17.6562 31.6875 18.3125 31.0688 18.9312C30.05 19.95 28.2562 20.7875 25.9875 21.3312C25.9937 21.225 26 21.1125 26 21V21ZM12 28C15.5125 28 18.7875 27.4125 21.2563 26.3813C22.275 25.9563 23.225 25.4313 24 24.7875V27C24 29.7625 18.625 32 12 32C5.375 32 0 29.7625 0 27V24.7875C0.78125 25.4313 1.725 25.9563 2.74375 26.3813C5.2125 27.4125 8.4875 28 12 28Z" fill="white"/>
</svg>
