<svg xmlns="http://www.w3.org/2000/svg" width="45.002" height="36" viewBox="0 0 45.002 36">
  <path id="Icon_awesome-people-carry" data-name="Icon awesome-people-carry" d="M9,6.75A3.375,3.375,0,1,0,5.625,3.375,3.376,3.376,0,0,0,9,6.75Zm27,0a3.375,3.375,0,1,0-3.375-3.375A3.376,3.376,0,0,0,36,6.75Zm8.838,26.163-3.094-7.734-2.89,3.263-.141,1.28,1.948,4.866A2.248,2.248,0,0,0,42.75,36a2.186,2.186,0,0,0,.837-.162A2.249,2.249,0,0,0,44.838,32.913Zm-2.4-14.752-1.3-5.639A4.557,4.557,0,0,0,38.5,9.366a4.338,4.338,0,0,0-3.945.232,7.7,7.7,0,0,0-3.382,4.177l-.795,2.384-1.125.717v-6.75A1.128,1.128,0,0,0,28.125,9H16.875a1.128,1.128,0,0,0-1.125,1.125v6.75l-1.132-.717-.795-2.384A7.649,7.649,0,0,0,10.441,9.6,4.34,4.34,0,0,0,6.5,9.366,4.557,4.557,0,0,0,3.86,12.523L2.566,18.162a4.5,4.5,0,0,0,1.013,3.987L8.3,27.485,9.014,34a2.252,2.252,0,0,0,2.236,2c.084,0,.162-.007.246-.014a2.246,2.246,0,0,0,1.99-2.482l-.71-6.525a4.494,4.494,0,0,0-1.1-2.461L8.634,21.073,9.872,16.13l.478,1.434a4.548,4.548,0,0,0,1.723,2.292l3.593,2.285a2.994,2.994,0,0,0,1.209.352h11.25a2.994,2.994,0,0,0,1.209-.352l3.593-2.285a4.519,4.519,0,0,0,1.723-2.292l.478-1.434,1.237,4.943-3.045,3.445a4.494,4.494,0,0,0-1.1,2.461l-.71,6.525a2.251,2.251,0,0,0,1.99,2.482c.084.007.162.014.246.014a2.251,2.251,0,0,0,2.236-2l.71-6.511,4.725-5.337a4.525,4.525,0,0,0,1.013-3.987ZM3.255,25.179.162,32.913a2.25,2.25,0,1,0,4.177,1.673l1.948-4.866-.141-1.28-2.89-3.263Z" transform="translate(0.001)" fill="#3d0ddf"/>
</svg>
