<svg width="33" height="46" viewBox="0 0 33 46" fill="none" xmlns="http://www.w3.org/2000/svg">
<path d="M16.9595 0C11.005 0 6.16406 4.84091 6.16406 10.7955C6.16406 16.6364 10.7322 21.3636 16.6868 21.5682C16.8686 21.5455 17.0504 21.5455 17.1868 21.5682C17.2322 21.5682 17.255 21.5682 17.3004 21.5682C17.3232 21.5682 17.3232 21.5682 17.3459 21.5682C23.1641 21.3636 27.7322 16.6364 27.755 10.7955C27.755 4.84091 22.9141 0 16.9595 0Z" fill="#292D32"/>
<path d="M28.5064 27.6119C22.1655 23.3846 11.8246 23.3846 5.43821 27.6119C2.55185 29.5437 0.960938 32.1573 0.960938 34.9528C0.960938 37.7482 2.55185 40.3391 5.41548 42.2482C8.5973 44.3846 12.7791 45.4528 16.9609 45.4528C21.1428 45.4528 25.3246 44.3846 28.5064 42.2482C31.37 40.3164 32.9609 37.7255 32.9609 34.9073C32.9382 32.1119 31.37 29.521 28.5064 27.6119Z" fill="#292D32"/>
</svg>
