<svg width="32" height="36" viewBox="0 0 32 36" fill="none" xmlns="http://www.w3.org/2000/svg">
<path d="M23.1111 26.55C23.8519 26.55 24.4818 26.2905 25.0009 25.7714C25.52 25.2522 25.779 24.6229 25.7778 23.8834C25.7778 23.1426 25.5182 22.5127 24.9991 21.9936C24.48 21.4745 23.8507 21.2155 23.1111 21.2167C22.3704 21.2167 21.7404 21.4762 21.2213 21.9954C20.7022 22.5145 20.4433 23.1438 20.4444 23.8834C20.4444 24.6241 20.704 25.254 21.2231 25.7731C21.7422 26.2922 22.3716 26.5512 23.1111 26.55ZM23.1111 31.8834C24.0296 31.8834 24.8741 31.6682 25.6444 31.238C26.4148 30.8078 27.037 30.2377 27.5111 29.5278C26.8593 29.1426 26.163 28.8463 25.4222 28.6389C24.6815 28.4315 23.9111 28.3278 23.1111 28.3278C22.3111 28.3278 21.5407 28.4315 20.8 28.6389C20.0593 28.8463 19.363 29.1426 18.7111 29.5278C19.1852 30.2389 19.8074 30.8096 20.5778 31.2398C21.3481 31.67 22.1926 31.8845 23.1111 31.8834ZM23.1111 35.4389C20.6519 35.4389 18.5553 34.572 16.8213 32.838C15.0874 31.1041 14.221 29.0081 14.2222 26.55C14.2222 24.0908 15.0892 21.9942 16.8231 20.2602C18.557 18.5263 20.653 17.66 23.1111 17.6611C25.5704 17.6611 27.667 18.5281 29.4009 20.262C31.1348 21.996 32.0012 24.092 32 26.55C32 29.0093 31.133 31.1059 29.3991 32.8398C27.6652 34.5737 25.5692 35.4401 23.1111 35.4389ZM14.2222 35.3056H13.7991C13.6664 35.3056 13.5259 35.276 13.3778 35.2167C9.4963 34.0315 6.2963 31.6315 3.77778 28.0167C1.25926 24.4019 0 20.4167 0 16.0611V7.66114C0 6.92039 0.215111 6.25373 0.645333 5.66114C1.07556 5.06854 1.63082 4.63891 2.31111 4.37225L12.9778 0.372247C13.3926 0.224098 13.8074 0.150024 14.2222 0.150024C14.637 0.150024 15.0519 0.224098 15.4667 0.372247L26.1333 4.37225C26.8148 4.63891 27.3707 5.06854 27.8009 5.66114C28.2311 6.25373 28.4456 6.92039 28.4444 7.66114V15.3056C27.8815 15.0685 27.3037 14.8534 26.7111 14.6602C26.1185 14.4671 25.5111 14.3266 24.8889 14.2389V7.70558L14.2222 3.70558L3.55556 7.70558V16.0611C3.55556 17.4537 3.74104 18.8463 4.112 20.2389C4.48296 21.6315 5.00148 22.9577 5.66756 24.2176C6.33363 25.4762 7.14074 26.6389 8.08889 27.7056C9.03704 28.7722 10.0889 29.6611 11.2444 30.3722C11.5704 31.3204 11.9852 32.2093 12.4889 33.0389C12.9926 33.8685 13.5852 34.6241 14.2667 35.3056H14.2222Z" fill="black"/>
</svg>
